<mxfile host="app.diagrams.net" agent="Mozilla/5.0 (Windows NT 10.0; Win64; x64) AppleWebKit/537.36 (KHTML, like Gecko) Chrome/128.0.0.0 Safari/537.36" version="24.7.14">
  <diagram name="Page-1" id="1mOEdvgR4X_0BsYrtt61">
    <mxGraphModel grid="1" page="1" gridSize="10" guides="1" tooltips="1" connect="1" arrows="1" fold="1" pageScale="1" pageWidth="850" pageHeight="1100" math="0" shadow="0">
      <root>
        <mxCell id="0" />
        <mxCell id="1" parent="0" />
        <mxCell id="q9HIg582Xj--tFv0DnI3-4" style="edgeStyle=orthogonalEdgeStyle;rounded=0;orthogonalLoop=1;jettySize=auto;html=1;entryX=0.5;entryY=0;entryDx=0;entryDy=0;" edge="1" parent="1" source="q9HIg582Xj--tFv0DnI3-1" target="q9HIg582Xj--tFv0DnI3-3">
          <mxGeometry relative="1" as="geometry" />
        </mxCell>
        <mxCell id="q9HIg582Xj--tFv0DnI3-5" value="HTTP/HTTPS Requests (Portas 80/443)" style="edgeLabel;html=1;align=center;verticalAlign=middle;resizable=0;points=[];" vertex="1" connectable="0" parent="q9HIg582Xj--tFv0DnI3-4">
          <mxGeometry x="-0.2985" y="-1" relative="1" as="geometry">
            <mxPoint as="offset" />
          </mxGeometry>
        </mxCell>
        <mxCell id="q9HIg582Xj--tFv0DnI3-1" value="Usuário (Dispositivos Moveis)&lt;div&gt;&lt;br&gt;&lt;/div&gt;&lt;div&gt;&amp;nbsp;-&lt;span style=&quot;background-color: initial;&quot;&gt;&amp;nbsp;Browser&lt;/span&gt;&lt;/div&gt;&lt;div&gt;&lt;span style=&quot;background-color: initial;&quot;&gt;&amp;nbsp;- Frontend (Next.js)&lt;/span&gt;&lt;/div&gt;&lt;div&gt;&lt;span style=&quot;background-color: initial;&quot;&gt;&amp;nbsp;- Portas: HTTP (80), HTTPS (443)&lt;/span&gt;&lt;/div&gt;" style="rounded=0;whiteSpace=wrap;html=1;align=left;" vertex="1" parent="1">
          <mxGeometry x="-1335" y="-1080" width="205" height="110" as="geometry" />
        </mxCell>
        <mxCell id="q9HIg582Xj--tFv0DnI3-7" style="edgeStyle=orthogonalEdgeStyle;rounded=0;orthogonalLoop=1;jettySize=auto;html=1;entryX=0.5;entryY=0;entryDx=0;entryDy=0;" edge="1" parent="1" source="q9HIg582Xj--tFv0DnI3-3" target="q9HIg582Xj--tFv0DnI3-6">
          <mxGeometry relative="1" as="geometry" />
        </mxCell>
        <mxCell id="q9HIg582Xj--tFv0DnI3-8" value="Proxy para /api/* Requests (Porta 3000)" style="edgeLabel;html=1;align=center;verticalAlign=middle;resizable=0;points=[];" vertex="1" connectable="0" parent="q9HIg582Xj--tFv0DnI3-7">
          <mxGeometry x="-0.0604" y="-3" relative="1" as="geometry">
            <mxPoint as="offset" />
          </mxGeometry>
        </mxCell>
        <mxCell id="q9HIg582Xj--tFv0DnI3-3" value="Servidor Web (NGINX)&amp;nbsp;&lt;div&gt;&lt;br&gt;&amp;nbsp;- Proxy Reverso para Backend (Porta 5000)&amp;nbsp;&lt;br&gt;&amp;nbsp;- Servidor de Arquivos Estáticos&amp;nbsp;&lt;br&gt;&amp;nbsp;- Portas Externas: HTTP (80), HTTPS (443)&amp;nbsp;&lt;br&gt;&amp;nbsp;- Porta Interna para Backend: 5000&lt;br&gt;&amp;nbsp;- Balanceamento de Carga (se necessário)&amp;nbsp;&lt;br&gt;&amp;nbsp;- Configurações de Firewall e Segurança&amp;nbsp;&lt;/div&gt;" style="rounded=0;whiteSpace=wrap;html=1;align=left;" vertex="1" parent="1">
          <mxGeometry x="-1390" y="-860" width="315" height="140" as="geometry" />
        </mxCell>
        <mxCell id="q9HIg582Xj--tFv0DnI3-10" style="edgeStyle=orthogonalEdgeStyle;rounded=0;orthogonalLoop=1;jettySize=auto;html=1;entryX=0.5;entryY=0;entryDx=0;entryDy=0;" edge="1" parent="1" source="q9HIg582Xj--tFv0DnI3-6" target="q9HIg582Xj--tFv0DnI3-9">
          <mxGeometry relative="1" as="geometry" />
        </mxCell>
        <mxCell id="q9HIg582Xj--tFv0DnI3-11" value="Consultas SQL (Porta 5432)" style="edgeLabel;html=1;align=center;verticalAlign=middle;resizable=0;points=[];" vertex="1" connectable="0" parent="q9HIg582Xj--tFv0DnI3-10">
          <mxGeometry x="-0.022" y="-2" relative="1" as="geometry">
            <mxPoint as="offset" />
          </mxGeometry>
        </mxCell>
        <mxCell id="q9HIg582Xj--tFv0DnI3-6" value="&lt;div&gt;&lt;span style=&quot;font-size: 12px;&quot;&gt;Backend (Node.js/Express)&amp;nbsp;&lt;/span&gt;&lt;/div&gt;&lt;div&gt;&lt;span style=&quot;font-size: 12px;&quot;&gt;&amp;nbsp;&amp;nbsp; &amp;nbsp; &amp;nbsp; &amp;nbsp; &amp;nbsp; &amp;nbsp; &amp;nbsp; &amp;nbsp; &amp;nbsp; &amp;nbsp; &amp;nbsp;&lt;/span&gt;&lt;/div&gt;&lt;div&gt;&lt;span style=&quot;font-size: 12px;&quot;&gt;&amp;nbsp;- APIs RESTful (Porta 5000)&amp;nbsp; &amp;nbsp; &amp;nbsp; &amp;nbsp; &amp;nbsp; &amp;nbsp; &amp;nbsp; &amp;nbsp; &amp;nbsp; &amp;nbsp; &amp;nbsp; &amp;nbsp;&amp;nbsp;&lt;/span&gt;&lt;/div&gt;&lt;div&gt;&lt;span style=&quot;font-size: 12px;&quot;&gt;&amp;nbsp;- Lógica de Negócio&amp;nbsp; &amp;nbsp; &amp;nbsp; &amp;nbsp; &amp;nbsp; &amp;nbsp; &amp;nbsp; &amp;nbsp; &amp;nbsp; &amp;nbsp; &amp;nbsp; &amp;nbsp; &amp;nbsp; &amp;nbsp; &amp;nbsp;&amp;nbsp;&lt;/span&gt;&lt;/div&gt;&lt;div&gt;&lt;span style=&quot;font-size: 12px;&quot;&gt;&amp;nbsp;- Autenticação e Autorização&amp;nbsp;&lt;/span&gt;&lt;/div&gt;&lt;div&gt;&lt;span style=&quot;font-size: 12px;&quot;&gt;&amp;nbsp;- Middleware de Validação e Segurança&amp;nbsp; &amp;nbsp; &amp;nbsp; &amp;nbsp; &amp;nbsp; &amp;nbsp; &amp;nbsp;&amp;nbsp;&lt;/span&gt;&lt;/div&gt;&lt;div&gt;&lt;span style=&quot;font-size: 12px;&quot;&gt;&amp;nbsp;- Porta: 3000 (Interna)&amp;nbsp; &amp;nbsp;&lt;/span&gt;&lt;/div&gt;" style="rounded=0;whiteSpace=wrap;html=1;align=left;" vertex="1" parent="1">
          <mxGeometry x="-1370" y="-610" width="275" height="140" as="geometry" />
        </mxCell>
        <mxCell id="q9HIg582Xj--tFv0DnI3-9" value="&lt;div&gt;&lt;span style=&quot;font-size: 12px;&quot;&gt;Banco de Dados (PostgreSQL)&amp;nbsp;&amp;nbsp;&lt;/span&gt;&lt;/div&gt;&lt;div&gt;&lt;span style=&quot;font-size: 12px;&quot;&gt;&amp;nbsp; &amp;nbsp; &amp;nbsp; &amp;nbsp; &amp;nbsp; &amp;nbsp; &amp;nbsp; &amp;nbsp; &amp;nbsp;&amp;nbsp;&lt;/span&gt;&lt;/div&gt;&lt;div&gt;&lt;span style=&quot;font-size: 12px;&quot;&gt;&amp;nbsp;- Tabelas: blocos, andares, waypoints, etc.&amp;nbsp; &amp;nbsp; &amp;nbsp; &amp;nbsp;&amp;nbsp;&lt;/span&gt;&lt;/div&gt;&lt;div&gt;&lt;span style=&quot;font-size: 12px;&quot;&gt;&amp;nbsp;- Porta: 5432 (Interna)&amp;nbsp; &amp;nbsp; &amp;nbsp; &amp;nbsp; &amp;nbsp; &amp;nbsp; &amp;nbsp; &amp;nbsp; &amp;nbsp; &amp;nbsp; &amp;nbsp; &amp;nbsp; &amp;nbsp; &amp;nbsp; &amp;nbsp; &amp;nbsp; &amp;nbsp; &amp;nbsp;&amp;nbsp;&lt;/span&gt;&lt;/div&gt;&lt;div&gt;&lt;span style=&quot;font-size: 12px;&quot;&gt;&amp;nbsp;- Regras de Firewall para Segurança&amp;nbsp; &amp;nbsp; &amp;nbsp; &amp;nbsp; &amp;nbsp; &amp;nbsp; &amp;nbsp; &amp;nbsp; &amp;nbsp; &amp;nbsp; &amp;nbsp;&lt;/span&gt;&lt;/div&gt;&lt;div&gt;&lt;span style=&quot;font-size: 12px;&quot;&gt;&amp;nbsp;- SSL/TLS para Criptografia de Dados&amp;nbsp;&lt;/span&gt;&lt;/div&gt;" style="rounded=0;whiteSpace=wrap;html=1;align=left;" vertex="1" parent="1">
          <mxGeometry x="-1370" y="-360" width="275" height="140" as="geometry" />
        </mxCell>
        <mxCell id="q9HIg582Xj--tFv0DnI3-12" value="&lt;div&gt;&lt;span style=&quot;font-size: 12px;&quot;&gt;&amp;nbsp;Serviços Externos (Mapas, Geolocalização, Cache do Navegador.)&amp;nbsp;&lt;/span&gt;&lt;/div&gt;&lt;div&gt;&lt;span style=&quot;font-size: 12px;&quot;&gt;&amp;nbsp;&amp;nbsp; &amp;nbsp; &amp;nbsp; &amp;nbsp;&lt;/span&gt;&lt;/div&gt;&lt;div&gt;&lt;span style=&quot;font-size: 12px;&quot;&gt;&amp;nbsp; - Porta: HTTPS (443)&amp;nbsp; &amp;nbsp; &amp;nbsp; &amp;nbsp; &amp;nbsp; &amp;nbsp; &amp;nbsp; &amp;nbsp; &amp;nbsp; &amp;nbsp; &amp;nbsp; &amp;nbsp; &amp;nbsp; &amp;nbsp; &amp;nbsp; &amp;nbsp; &amp;nbsp;&lt;/span&gt;&lt;/div&gt;&lt;div&gt;&lt;span style=&quot;font-size: 12px;&quot;&gt;&amp;nbsp; - API de Mapas e Geolocalização&amp;nbsp; &amp;nbsp; &amp;nbsp; &amp;nbsp; &amp;nbsp; &amp;nbsp; &amp;nbsp; &amp;nbsp; &amp;nbsp; &amp;nbsp;&lt;/span&gt;&lt;/div&gt;&lt;div&gt;&lt;span style=&quot;font-size: 12px;&quot;&gt;&amp;nbsp; - Serviços de Autenticação Externa (se necessário)&lt;/span&gt;&lt;/div&gt;" style="rounded=0;whiteSpace=wrap;html=1;align=left;" vertex="1" parent="1">
          <mxGeometry x="-1370" y="-150" width="275" height="140" as="geometry" />
        </mxCell>
      </root>
    </mxGraphModel>
  </diagram>
</mxfile>
